<?xml version="1.0" encoding="utf-8"?>
<svg
  height="32px"
  viewBox="0 0 64 64"
  width="32px"
  xmlns="http://www.w3.org/2000/svg"
  xmlns:xlink="http://www.w3.org/1999/xlink"
  >
  <g fill="#FF9900">
    <path
      d="
        M63.04 39.74
        c-4.27 17.14-21.63 27.57-38.78 23.30
        C7.12 58.76-3.31 41.40.962 24.26 5.23 7.11 22.59-3.31 39.73.957
        c17.14 4.27 27.57 21.64 23.30 38.78z
      "
      />
    <path
      d="
        M46.11 27.44
        c.636-4.25-2.60-6.54-7.03-8.07
        l1.43-5.76-3.51-.875-1.4 5.61
        c-.922-.23-1.87-.447-2.81-.662
        l1.41-5.65-3.50-.875-1.43 5.76
        c-.764-.174-1.51-.346-2.24-.527
        l.004-.018-4.84-1.20-.934 3.75
        s2.60.597 2.55.63
        c1.42.355 1.68 1.29 1.63 2.04
        l-1.63 6.57
        c.098.02.225.06.365.11
        l-.37-.092-2.29 9.20
        c-.174.43-.615 1.08-1.60.834.03.051-2.55-.637-2.55-.637
        l-1.74 4.02 4.57 1.13
        c.85.21 1.68.436 2.50.646
        l-1.45 5.83 3.50.875 1.44-5.77
        c.957.26 1.88.5 2.79.726
        L27.50 50.8
        l3.51.875 1.45-5.82
        c5.98 1.13 10.49.67 12.38-4.73 1.52-4.36-.075-6.87-3.22-8.51 2.29-.531 4.02-2.04 4.48-5.15z
        M38.08 38.69
        c-1.08 4.36-8.42 2.00-10.80 1.41
        l1.92-7.72
        c2.38.59 10.01 1.77 8.88 6.31z
        m1.08-11.31
        c-.99 3.96-7.1 1.95-9.08 1.45
        l1.74-7.01
        c1.98.494 8.36 1.41 7.33 5.55z
      "
      fill="white"
      />
  </g>
</svg>
