<?xml version="1.0" encoding="utf-8"?>
<svg
  height="25"
  width="75"
  viewBox="0 0 75 25"
  xmlns="http://www.w3.org/2000/svg"
  xmlns:xlink="http://www.w3.org/1999/xlink"
  >
  <defs>
    <linearGradient
      id="backdrop"
      x1="50%"
      x2="50%"
      y1="0"
      y2="100%"
      >
      <stop
        stop-color="black"
        stop-opacity="1"
        offset="0%"
        />
      <stop
        stop-color="#101F57"
        stop-opacity="1"
        offset="75%"
        />
    </linearGradient>
  </defs>
  <rect
    fill="url(#backdrop)"
    height="100%"
    width="100%"
    x="0"
    y="0"
    />
  <g
    fill="#F61D5B"
    >
    <path
      d="
        M54.9369 11.0035
        H50.9243
        V13.003
        H52.9306
        V18.0018
        H51.9274
        V19.0015
        H50.9243
        V20.0013
        H56.9432
        V19.0015
        H55.9401
        V18.0018
        H54.9369
        V17.002
        H55.9401
        V16.0023
        H54.9369
        V15.0025
        H55.9401
        V13.003
        H56.9432
        V12.0033
        H58.9495
        V19.0015
        H57.9464
        V20.0013
        H63.9653
        V19.0015
        H61.959
        V12.0033
        H60.9558
        V11.0035
        H55.9401
        V12.0033
        H54.9369
        V11.003Z
      "
      />
    <path
      d="
        M63.9653 12.0033
        V11.0035
        H68.9811
        V12.0033
        H67.9779
        V14.0028
        H68.9811
        V15.0025
        H69.9842
        V17.002
        H70.9874
        V15.0025
        H71.9905
        V12.0033
        H70.9874
        V11.0035
        H75
        V12.0033
        H73.9968
        V14.0028
        H72.9937
        V16.0023
        H71.9905
        V18.0018
        H70.9874
        V20.0013
        H69.9842
        V22.0008
        H68.9811
        V24.0003
        H67.9779
        V25
        H64.9685
        V23.0005
        H66.9748
        V22.0008
        H67.9779
        V21.001
        H68.9811
        V19.0015
        H67.9779
        V17.002
        H66.9748
        V15.0025
        H65.9716
        V14.0028
        H64.9685
        V12.0033
        H63.965Z
      "
      />
    <path
      d="
        M38.0062 11.0035
        H36.0035
        V12.0012
        H38.0062
        V19.9824
        H43.0128
        V18.9847
        H44.0141
        V17.9871
        H42.0114
        V18.9847
        H41.0101
        V17.9871
        H40.0088
        V16.9894
        H41.0101
        V13.9965
        H40.0088
        V12.0012
        H44.0141
        V11.0035
        H40.0088
        V10.0059
        H41.0101
        V8.01056
        H39.0075
        V10.0059
        H38.0062
        V11.003Z
      "
      />
    <path
      d="
        M46.0094 8.01056
        V5.01761
        H49.0023
        V8.01056
        H46.009Z
      "
      />
    <path
      d="
        M45.0117 11.0035
        H49.0023
        V18.9847
        H50
        V19.9824
        H44.0141
        V18.9847
        H46.0094
        V12.9988
        H44.0141
        V12.0012
        H45.0117
        V11.003Z
      "
      />
    <path
      d="
        M0 17.9842
        H2.00631
        V18.9833
        H5.01577
        V17.9842
        H6.01893
        V7.99296
        H7.02208
        V5.99472
        H6.01893
        V4.9956
        H4.01262
        V5.99472
        H3.00946
        V6.99384
        H2.00631
        V7.99296
        H5.01577
        V9.9912
        H4.01262
        V10.9903
        H2.00631
        V9.9912
        H1.00315
        V5.99472
        H2.00631
        V4.9956
        H3.00946
        V3.99648
        H9.02839
        V4.9956
        H10.0315
        V5.99472
        H11.0347
        V7.99296
        H12.0379
        V9.9912
        H13.041
        V10.9903
        H14.0442
        V8.99208
        H15.0473
        V7.99296
        H16.0505
        V5.99472
        H17.0536
        V3.99648
        H18.0568
        V2.99736
        H19.0599
        V0.99912
        H21.0662
        V0
        H23.0725
        V0.99912
        H24.0757
        V1.99824
        H22.0694
        V0.99912
        H21.0662
        V1.99824
        H20.0631
        V13.9877
        H21.0662
        V18.9833
        H22.0694
        V19.9824
        H18.0568
        V18.9833
        H17.0536
        V8.99208
        H16.0505
        V9.9912
        H15.0473
        V11.9894
        H14.0442
        V13.9877
        H13.041
        V15.9859
        H11.0347
        V13.9877
        H10.0315
        V11.9894
        H9.02839
        V8.99208
        H8.02523
        V14.9868
        H7.02208
        V17.9842
        H6.01893
        V18.9833
        H5.01577
        V19.9824
        H1.00315
        V18.9833
        H0
        V17.984Z
      "
      />
    <path
      d="
        M22.9313 11.0035
        H26.9535
        V17.9871
        H27.9591
        V18.9847
        H29.9702
        V17.9871
        H30.9758
        V12.0012
        H28.9647
        V11.0035
        H33.9924
        V18.9847
        H36.0035
        V19.9824
        H30.9758
        V18.9847
        H29.9702
        V19.9824
        H24.9424
        V17.9871
        H23.9369
        V13.9965
        H24.9424
        V12.9988
        H23.9369
        V12.0012
        H22.9313
        V11.003Z
      "
      />
  </g>
</svg>
